<?xml version="1.0" encoding="utf-8"?>
<!-- Generator: Adobe Illustrator 22.0.0, SVG Export Plug-In . SVG Version: 6.00 Build 0)  -->
<svg version="1.1" id="Calque_1" xmlns="http://www.w3.org/2000/svg" xmlns:xlink="http://www.w3.org/1999/xlink" x="0px" y="0px"
	 viewBox="0 0 800 600" style="enable-background:new 0 0 800 600;" xml:space="preserve">
<style type="text/css">
	.st0{fill:#FFFFFF;}
</style>
<path class="st0" d="M398.8,131.7c-87.8,0-159,71.2-159,159s71.2,159,159,159s159-71.2,159-159S486.6,131.7,398.8,131.7z
	 M334.8,366.2c0,5.5-4.4,9.9-9.9,9.9c-5.5,0-9.9-4.4-9.9-9.9V215.3c0-5.5,4.4-9.9,9.9-9.9c5.5,0,9.9,4.4,9.9,9.9V366.2z M372,366.2
	c0,5.5-4.4,9.9-9.9,9.9c-5.5,0-9.9-4.4-9.9-9.9V330c0-5.5,4.4-9.9,9.9-9.9c5.5,0,9.9,4.4,9.9,9.9V366.2z M372.3,299.4
	c0,5.5-4.4,9.9-9.9,9.9c-5.5,0-9.9-4.4-9.9-9.9v-84.1c0-5.5,4.4-9.9,9.9-9.9c5.5,0,9.9,4.4,9.9,9.9V299.4z M409.1,366.2
	c0,5.5-4.4,9.9-9.9,9.9c-5.5,0-9.9-4.4-9.9-9.9V215.3c0-5.5,4.4-9.9,9.9-9.9c5.5,0,9.9,4.4,9.9,9.9V366.2z M446.3,366.2
	c0,5.5-4.4,9.9-9.9,9.9c-5.5,0-9.9-4.4-9.9-9.9V260.6c0-5.5,4.4-9.9,9.9-9.9c5.5,0,9.9,4.4,9.9,9.9V366.2z M446.3,226.5
	c0,5.5-4.4,9.9-9.9,9.9c-5.5,0-9.9-4.4-9.9-9.9v-11.2c0-5.5,4.4-9.9,9.9-9.9c5.5,0,9.9,4.4,9.9,9.9V226.5z M482.5,366.2
	c0,5.5-4.4,9.9-9.9,9.9c-5.5,0-9.9-4.4-9.9-9.9V215.3c0-5.5,4.4-9.9,9.9-9.9c5.5,0,9.9,4.4,9.9,9.9V366.2z"/>
</svg>
