<?xml version="1.0" encoding="utf-8"?>
<!-- Generator: Adobe Illustrator 22.0.0, SVG Export Plug-In . SVG Version: 6.00 Build 0)  -->
<svg version="1.1" id="Layer_1" xmlns="http://www.w3.org/2000/svg" xmlns:xlink="http://www.w3.org/1999/xlink" x="0px" y="0px"
	 viewBox="0 0 85 85" style="enable-background:new 0 0 85 85;" xml:space="preserve">
<style type="text/css">
	.st0{fill:#FFFFFF;}
</style>
<path class="st0" d="M42.7,0C19.2,0,0.2,19,0.2,42.5S19.2,85,42.7,85s42.5-19,42.5-42.5S66.1,0,42.7,0z M25.6,62.7
	c0,1.5-1.2,2.6-2.6,2.6c-1.5,0-2.6-1.2-2.6-2.6V22.3c0-1.5,1.2-2.6,2.6-2.6c1.5,0,2.6,1.2,2.6,2.6V62.7z M35.5,62.7
	c0,1.5-1.2,2.6-2.6,2.6c-1.5,0-2.6-1.2-2.6-2.6V53c0-1.5,1.2-2.6,2.6-2.6c1.5,0,2.6,1.2,2.6,2.6V62.7z M35.6,44.8
	c0,1.5-1.2,2.6-2.6,2.6s-2.6-1.2-2.6-2.6V22.3c0-1.5,1.2-2.6,2.6-2.6s2.6,1.2,2.6,2.6V44.8z M45.4,62.7c0,1.5-1.2,2.6-2.6,2.6
	s-2.6-1.2-2.6-2.6V22.3c0-1.5,1.2-2.6,2.6-2.6s2.6,1.2,2.6,2.6V62.7z M55.4,62.7c0,1.5-1.2,2.6-2.6,2.6c-1.5,0-2.6-1.2-2.6-2.6V34.5
	c0-1.5,1.2-2.6,2.6-2.6c1.5,0,2.6,1.2,2.6,2.6V62.7z M55.4,25.3c0,1.5-1.2,2.6-2.6,2.6c-1.5,0-2.6-1.2-2.6-2.6v-3
	c0-1.5,1.2-2.6,2.6-2.6c1.5,0,2.6,1.2,2.6,2.6V25.3z M65,62.7c0,1.5-1.2,2.6-2.6,2.6s-2.6-1.2-2.6-2.6V22.3c0-1.5,1.2-2.6,2.6-2.6
	s2.6,1.2,2.6,2.6V62.7z"/>
</svg>
